<mxfile host="app.diagrams.net" modified="2024-04-19T01:20:51.107Z" agent="Mozilla/5.0 (Windows NT 10.0; Win64; x64) AppleWebKit/537.36 (KHTML, like Gecko) Chrome/121.0.0.0 Safari/537.36" etag="sf41XkfmDl7C7bSEQ8j_" version="24.2.5" type="device">
  <diagram name="Página-1" id="nhWj4Ym3hKtfTfWucrAX">
    <mxGraphModel dx="1687" dy="2087" grid="1" gridSize="10" guides="1" tooltips="1" connect="1" arrows="1" fold="1" page="1" pageScale="1" pageWidth="827" pageHeight="1169" math="0" shadow="0">
      <root>
        <mxCell id="0" />
        <mxCell id="1" parent="0" />
        <mxCell id="uzObenUR7tk3p3OHf-jT-1" value="frame" style="shape=umlFrame;whiteSpace=wrap;html=1;pointerEvents=0;" parent="1" vertex="1">
          <mxGeometry x="217" y="160" width="610" height="970" as="geometry" />
        </mxCell>
        <mxCell id="uzObenUR7tk3p3OHf-jT-2" value="EmitirPedidoExame" style="ellipse;whiteSpace=wrap;html=1;" parent="1" vertex="1">
          <mxGeometry x="270" y="170" width="140" height="70" as="geometry" />
        </mxCell>
        <mxCell id="__-ANQvbYC6DvYHzRRDW-31" style="edgeStyle=orthogonalEdgeStyle;rounded=0;orthogonalLoop=1;jettySize=auto;html=1;endArrow=none;endFill=0;" edge="1" parent="1" source="uzObenUR7tk3p3OHf-jT-3" target="uzObenUR7tk3p3OHf-jT-7">
          <mxGeometry relative="1" as="geometry" />
        </mxCell>
        <mxCell id="__-ANQvbYC6DvYHzRRDW-33" style="edgeStyle=orthogonalEdgeStyle;rounded=0;orthogonalLoop=1;jettySize=auto;html=1;entryX=0;entryY=0.5;entryDx=0;entryDy=0;endArrow=none;endFill=0;" edge="1" parent="1" source="uzObenUR7tk3p3OHf-jT-3" target="bGlNpmlMCKQ2iGiUxBxq-2">
          <mxGeometry relative="1" as="geometry" />
        </mxCell>
        <mxCell id="uzObenUR7tk3p3OHf-jT-3" value="&lt;p style=&quot;margin:0px;margin-top:4px;text-align:center;&quot;&gt;&lt;b&gt;Medico&lt;/b&gt;&lt;/p&gt;&lt;hr size=&quot;1&quot; style=&quot;border-style:solid;&quot;&gt;&lt;p style=&quot;margin:0px;margin-left:4px;&quot;&gt;- Nome: String&lt;br&gt;- CRM: Int&lt;/p&gt;&lt;hr size=&quot;1&quot; style=&quot;border-style:solid;&quot;&gt;&lt;p style=&quot;margin:0px;margin-left:4px;&quot;&gt;+ Emitir_Pedido_Exame()&lt;br&gt;+ Selecionar_Exame()&lt;/p&gt;&lt;p style=&quot;margin:0px;margin-left:4px;&quot;&gt;+ Informar_Hipotese()&lt;/p&gt;&lt;p style=&quot;margin:0px;margin-left:4px;&quot;&gt;+ Solicitar_emissao()&lt;/p&gt;&lt;p style=&quot;margin:0px;margin-left:4px;&quot;&gt;+ ConsultarLaudo()&lt;/p&gt;&lt;p style=&quot;margin:0px;margin-left:4px;&quot;&gt;&lt;br&gt;&lt;/p&gt;" style="verticalAlign=top;align=left;overflow=fill;html=1;whiteSpace=wrap;" parent="1" vertex="1">
          <mxGeometry x="140" y="-460" width="190" height="172" as="geometry" />
        </mxCell>
        <mxCell id="uzObenUR7tk3p3OHf-jT-4" value="&lt;p style=&quot;margin:0px;margin-top:4px;text-align:center;&quot;&gt;&lt;b&gt;Docente&lt;/b&gt;&lt;/p&gt;&lt;hr size=&quot;1&quot; style=&quot;border-style:solid;&quot;&gt;&lt;p style=&quot;margin:0px;margin-left:4px;&quot;&gt;- Titulação: String&lt;/p&gt;&lt;hr size=&quot;1&quot; style=&quot;border-style:solid;&quot;&gt;&lt;p style=&quot;margin:0px;margin-left:4px;&quot;&gt;+ RevisarLaudo();&lt;/p&gt;" style="verticalAlign=top;align=left;overflow=fill;html=1;whiteSpace=wrap;" parent="1" vertex="1">
          <mxGeometry x="245" y="-200" width="190" height="90" as="geometry" />
        </mxCell>
        <mxCell id="uzObenUR7tk3p3OHf-jT-5" value="&lt;p style=&quot;margin:0px;margin-top:4px;text-align:center;&quot;&gt;&lt;b&gt;Residente&lt;/b&gt;&lt;/p&gt;&lt;hr size=&quot;1&quot; style=&quot;border-style:solid;&quot;&gt;&lt;p style=&quot;margin:0px;margin-left:4px;&quot;&gt;Ano_residencia: date&lt;/p&gt;&lt;hr size=&quot;1&quot; style=&quot;border-style:solid;&quot;&gt;&lt;p style=&quot;margin:0px;margin-left:4px;&quot;&gt;+ RegistrarExame();&lt;br&gt;+ EmitirLaudo();&lt;/p&gt;" style="verticalAlign=top;align=left;overflow=fill;html=1;whiteSpace=wrap;" parent="1" vertex="1">
          <mxGeometry x="10" y="-230" width="190" height="140" as="geometry" />
        </mxCell>
        <mxCell id="uzObenUR7tk3p3OHf-jT-6" value="&lt;p style=&quot;margin:0px;margin-top:4px;text-align:center;&quot;&gt;&lt;b&gt;Paciente&lt;/b&gt;&lt;/p&gt;&lt;hr size=&quot;1&quot; style=&quot;border-style:solid;&quot;&gt;&lt;p style=&quot;margin:0px;margin-left:4px;&quot;&gt;- Registro: int&lt;/p&gt;&lt;p style=&quot;margin:0px;margin-left:4px;&quot;&gt;- Nome: String&lt;/p&gt;&lt;p style=&quot;margin:0px;margin-left:4px;&quot;&gt;- Sexo: String&lt;/p&gt;&lt;p style=&quot;margin:0px;margin-left:4px;&quot;&gt;- Cor: String&lt;/p&gt;&lt;p style=&quot;margin:0px;margin-left:4px;&quot;&gt;- Data_nascimento: date&lt;/p&gt;&lt;hr size=&quot;1&quot; style=&quot;border-style:solid;&quot;&gt;&lt;p style=&quot;margin:0px;margin-left:4px;&quot;&gt;+ method1(Type): Type&lt;br&gt;+ method2(Type, Type): Type&lt;/p&gt;" style="verticalAlign=top;align=left;overflow=fill;html=1;whiteSpace=wrap;" parent="1" vertex="1">
          <mxGeometry x="70" y="-670" width="190" height="110" as="geometry" />
        </mxCell>
        <mxCell id="uzObenUR7tk3p3OHf-jT-8" style="edgeStyle=orthogonalEdgeStyle;rounded=0;orthogonalLoop=1;jettySize=auto;html=1;entryX=1;entryY=0.5;entryDx=0;entryDy=0;endArrow=none;endFill=0;" parent="1" source="uzObenUR7tk3p3OHf-jT-7" target="uzObenUR7tk3p3OHf-jT-6" edge="1">
          <mxGeometry relative="1" as="geometry" />
        </mxCell>
        <mxCell id="uzObenUR7tk3p3OHf-jT-7" value="&lt;p style=&quot;margin:0px;margin-top:4px;text-align:center;&quot;&gt;&lt;b&gt;Pedido_Exame_Impresso&lt;/b&gt;&lt;/p&gt;&lt;hr size=&quot;1&quot; style=&quot;border-style:solid;&quot;&gt;&lt;p style=&quot;margin:0px;margin-left:4px;&quot;&gt;- Data_Prevista: Date&lt;br&gt;- Nome_exame: String&lt;/p&gt;&lt;p style=&quot;margin:0px;margin-left:4px;&quot;&gt;- Recomendacoes: String&lt;/p&gt;&lt;hr size=&quot;1&quot; style=&quot;border-style:solid;&quot;&gt;&lt;p style=&quot;margin:0px;margin-left:4px;&quot;&gt;+ method1(Type): Type&lt;br&gt;+ method2(Type, Type): Type&lt;/p&gt;" style="verticalAlign=top;align=left;overflow=fill;html=1;whiteSpace=wrap;" parent="1" vertex="1">
          <mxGeometry x="320" y="-575" width="190" height="80" as="geometry" />
        </mxCell>
        <mxCell id="bGlNpmlMCKQ2iGiUxBxq-2" value="&lt;p style=&quot;margin:0px;margin-top:4px;text-align:center;&quot;&gt;&lt;b&gt;Laudo&lt;/b&gt;&lt;/p&gt;&lt;hr size=&quot;1&quot; style=&quot;border-style:solid;&quot;&gt;&lt;p style=&quot;margin:0px;margin-left:4px;&quot;&gt;- Descrição: String&lt;br&gt;- Conclusão: String&lt;/p&gt;&lt;p style=&quot;margin:0px;margin-left:4px;&quot;&gt;- Status: String&lt;/p&gt;&lt;p style=&quot;margin:0px;margin-left:4px;&quot;&gt;____________________________&lt;/p&gt;&lt;p style=&quot;margin:0px;margin-left:4px;&quot;&gt;&lt;br&gt;&lt;/p&gt;&lt;p style=&quot;margin:0px;margin-left:4px;&quot;&gt;&lt;br&gt;&lt;/p&gt;" style="verticalAlign=top;align=left;overflow=fill;html=1;whiteSpace=wrap;" parent="1" vertex="1">
          <mxGeometry x="480" y="-360" width="190" height="140" as="geometry" />
        </mxCell>
        <mxCell id="bGlNpmlMCKQ2iGiUxBxq-12" style="edgeStyle=none;curved=1;rounded=0;orthogonalLoop=1;jettySize=auto;html=1;exitX=0.5;exitY=0.5;exitDx=0;exitDy=0;exitPerimeter=0;entryX=0;entryY=0.5;entryDx=0;entryDy=0;fontSize=12;startSize=8;endSize=8;" parent="1" source="bGlNpmlMCKQ2iGiUxBxq-8" target="uzObenUR7tk3p3OHf-jT-2" edge="1">
          <mxGeometry relative="1" as="geometry" />
        </mxCell>
        <mxCell id="bGlNpmlMCKQ2iGiUxBxq-8" value="Medico" style="shape=umlActor;verticalLabelPosition=bottom;verticalAlign=top;html=1;outlineConnect=0;" parent="1" vertex="1">
          <mxGeometry x="40" y="360" width="30" height="60" as="geometry" />
        </mxCell>
        <mxCell id="bGlNpmlMCKQ2iGiUxBxq-9" value="Docente" style="shape=umlActor;verticalLabelPosition=bottom;verticalAlign=top;html=1;outlineConnect=0;" parent="1" vertex="1">
          <mxGeometry x="40" y="760" width="30" height="60" as="geometry" />
        </mxCell>
        <mxCell id="__-ANQvbYC6DvYHzRRDW-18" style="rounded=0;orthogonalLoop=1;jettySize=auto;html=1;exitX=0.5;exitY=0.5;exitDx=0;exitDy=0;exitPerimeter=0;entryX=0;entryY=0.5;entryDx=0;entryDy=0;endArrow=none;endFill=0;" edge="1" parent="1" source="bGlNpmlMCKQ2iGiUxBxq-10" target="__-ANQvbYC6DvYHzRRDW-19">
          <mxGeometry relative="1" as="geometry" />
        </mxCell>
        <mxCell id="bGlNpmlMCKQ2iGiUxBxq-10" value="Residente" style="shape=umlActor;verticalLabelPosition=bottom;verticalAlign=top;html=1;outlineConnect=0;" parent="1" vertex="1">
          <mxGeometry x="40" y="850" width="30" height="60" as="geometry" />
        </mxCell>
        <mxCell id="bGlNpmlMCKQ2iGiUxBxq-13" value="Buscar" style="ellipse;whiteSpace=wrap;html=1;" parent="1" vertex="1">
          <mxGeometry x="490" y="170" width="140" height="70" as="geometry" />
        </mxCell>
        <mxCell id="bGlNpmlMCKQ2iGiUxBxq-15" value="&amp;lt;&amp;lt;include&amp;gt;&amp;gt;" style="html=1;verticalAlign=bottom;labelBackgroundColor=none;endArrow=open;endFill=0;dashed=1;rounded=0;fontSize=12;startSize=8;endSize=8;curved=1;exitX=1;exitY=0.5;exitDx=0;exitDy=0;" parent="1" source="uzObenUR7tk3p3OHf-jT-2" edge="1">
          <mxGeometry width="160" relative="1" as="geometry">
            <mxPoint x="410" y="200" as="sourcePoint" />
            <mxPoint x="490" y="205" as="targetPoint" />
          </mxGeometry>
        </mxCell>
        <mxCell id="bGlNpmlMCKQ2iGiUxBxq-16" value="CalcularIdade" style="ellipse;whiteSpace=wrap;html=1;" parent="1" vertex="1">
          <mxGeometry x="687" y="170" width="140" height="70" as="geometry" />
        </mxCell>
        <mxCell id="bGlNpmlMCKQ2iGiUxBxq-18" value="&amp;lt;&amp;lt;include&amp;gt;&amp;gt;" style="html=1;verticalAlign=bottom;labelBackgroundColor=none;endArrow=open;endFill=0;dashed=1;rounded=0;fontSize=12;startSize=8;endSize=8;curved=1;exitX=1;exitY=0.5;exitDx=0;exitDy=0;entryX=0;entryY=0.5;entryDx=0;entryDy=0;" parent="1" target="bGlNpmlMCKQ2iGiUxBxq-16" edge="1">
          <mxGeometry width="160" relative="1" as="geometry">
            <mxPoint x="630" y="204.32999999999998" as="sourcePoint" />
            <mxPoint x="670" y="204" as="targetPoint" />
          </mxGeometry>
        </mxCell>
        <mxCell id="mggLnQvWcoa1rtxllV07-1" value="SelecionaExamePorPedido" style="ellipse;whiteSpace=wrap;html=1;" parent="1" vertex="1">
          <mxGeometry x="265" y="250" width="150" height="70" as="geometry" />
        </mxCell>
        <mxCell id="mggLnQvWcoa1rtxllV07-2" style="edgeStyle=none;curved=1;rounded=0;orthogonalLoop=1;jettySize=auto;html=1;entryX=0.5;entryY=0.5;entryDx=0;entryDy=0;entryPerimeter=0;fontSize=12;startSize=8;endSize=8;endArrow=none;endFill=0;" parent="1" source="mggLnQvWcoa1rtxllV07-1" target="bGlNpmlMCKQ2iGiUxBxq-8" edge="1">
          <mxGeometry relative="1" as="geometry" />
        </mxCell>
        <mxCell id="mggLnQvWcoa1rtxllV07-4" value="DefinirPrevisaoDoExame" style="ellipse;whiteSpace=wrap;html=1;" parent="1" vertex="1">
          <mxGeometry x="264" y="330" width="150" height="70" as="geometry" />
        </mxCell>
        <mxCell id="mggLnQvWcoa1rtxllV07-5" style="edgeStyle=none;curved=1;rounded=0;orthogonalLoop=1;jettySize=auto;html=1;entryX=0.5;entryY=0.5;entryDx=0;entryDy=0;entryPerimeter=0;fontSize=12;startSize=8;endSize=8;endArrow=none;endFill=0;exitX=0;exitY=0.5;exitDx=0;exitDy=0;" parent="1" source="mggLnQvWcoa1rtxllV07-4" target="bGlNpmlMCKQ2iGiUxBxq-8" edge="1">
          <mxGeometry relative="1" as="geometry" />
        </mxCell>
        <mxCell id="__-ANQvbYC6DvYHzRRDW-1" value="DefinirDiagnostico" style="ellipse;whiteSpace=wrap;html=1;" vertex="1" parent="1">
          <mxGeometry x="269" y="410" width="140" height="70" as="geometry" />
        </mxCell>
        <mxCell id="__-ANQvbYC6DvYHzRRDW-32" style="edgeStyle=orthogonalEdgeStyle;rounded=0;orthogonalLoop=1;jettySize=auto;html=1;endArrow=none;endFill=0;" edge="1" parent="1" source="__-ANQvbYC6DvYHzRRDW-2" target="uzObenUR7tk3p3OHf-jT-7">
          <mxGeometry relative="1" as="geometry" />
        </mxCell>
        <mxCell id="__-ANQvbYC6DvYHzRRDW-37" style="edgeStyle=orthogonalEdgeStyle;rounded=0;orthogonalLoop=1;jettySize=auto;html=1;entryX=0.5;entryY=0;entryDx=0;entryDy=0;endArrow=none;endFill=0;" edge="1" parent="1" source="__-ANQvbYC6DvYHzRRDW-2" target="bGlNpmlMCKQ2iGiUxBxq-2">
          <mxGeometry relative="1" as="geometry" />
        </mxCell>
        <mxCell id="__-ANQvbYC6DvYHzRRDW-2" value="&lt;p style=&quot;margin:0px;margin-top:4px;text-align:center;&quot;&gt;&lt;b&gt;Exame&lt;/b&gt;&lt;/p&gt;&lt;hr size=&quot;1&quot; style=&quot;border-style:solid;&quot;&gt;&lt;p style=&quot;margin:0px;margin-left:4px;&quot;&gt;+ Tipo exame: String&lt;br&gt;+ DataRealizaçao: Date&lt;/p&gt;&lt;p style=&quot;margin:0px;margin-left:4px;&quot;&gt;+ DataPrevista: Date&lt;/p&gt;&lt;hr size=&quot;1&quot; style=&quot;border-style:solid;&quot;&gt;&lt;p style=&quot;margin:0px;margin-left:4px;&quot;&gt;+&amp;nbsp;&lt;/p&gt;" style="verticalAlign=top;align=left;overflow=fill;html=1;whiteSpace=wrap;" vertex="1" parent="1">
          <mxGeometry x="600" y="-590" width="190" height="140" as="geometry" />
        </mxCell>
        <mxCell id="__-ANQvbYC6DvYHzRRDW-4" style="rounded=0;orthogonalLoop=1;jettySize=auto;html=1;entryX=0.5;entryY=0.5;entryDx=0;entryDy=0;entryPerimeter=0;endArrow=none;endFill=0;exitX=0;exitY=0.5;exitDx=0;exitDy=0;" edge="1" parent="1" source="__-ANQvbYC6DvYHzRRDW-1" target="bGlNpmlMCKQ2iGiUxBxq-8">
          <mxGeometry relative="1" as="geometry" />
        </mxCell>
        <mxCell id="__-ANQvbYC6DvYHzRRDW-5" value="SolicitarEmissaoPedido" style="ellipse;whiteSpace=wrap;html=1;" vertex="1" parent="1">
          <mxGeometry x="269" y="490" width="140" height="70" as="geometry" />
        </mxCell>
        <mxCell id="__-ANQvbYC6DvYHzRRDW-6" style="rounded=0;orthogonalLoop=1;jettySize=auto;html=1;entryX=0.5;entryY=0.5;entryDx=0;entryDy=0;entryPerimeter=0;endArrow=none;endFill=0;exitX=0;exitY=0.5;exitDx=0;exitDy=0;" edge="1" parent="1" source="__-ANQvbYC6DvYHzRRDW-5" target="bGlNpmlMCKQ2iGiUxBxq-8">
          <mxGeometry relative="1" as="geometry" />
        </mxCell>
        <mxCell id="__-ANQvbYC6DvYHzRRDW-7" value="&amp;lt;&amp;lt;include&amp;gt;&amp;gt;" style="html=1;verticalAlign=bottom;labelBackgroundColor=none;endArrow=open;endFill=0;dashed=1;rounded=0;" edge="1" parent="1" source="__-ANQvbYC6DvYHzRRDW-5">
          <mxGeometry width="160" relative="1" as="geometry">
            <mxPoint x="410" y="520" as="sourcePoint" />
            <mxPoint x="470" y="525" as="targetPoint" />
          </mxGeometry>
        </mxCell>
        <mxCell id="__-ANQvbYC6DvYHzRRDW-8" value="Salvar" style="ellipse;whiteSpace=wrap;html=1;" vertex="1" parent="1">
          <mxGeometry x="470" y="490" width="140" height="70" as="geometry" />
        </mxCell>
        <mxCell id="__-ANQvbYC6DvYHzRRDW-9" value="&amp;lt;&amp;lt;include&amp;gt;&amp;gt;" style="html=1;verticalAlign=bottom;labelBackgroundColor=none;endArrow=open;endFill=0;dashed=1;rounded=0;" edge="1" parent="1">
          <mxGeometry width="160" relative="1" as="geometry">
            <mxPoint x="610" y="520" as="sourcePoint" />
            <mxPoint x="670" y="520" as="targetPoint" />
          </mxGeometry>
        </mxCell>
        <mxCell id="__-ANQvbYC6DvYHzRRDW-10" value="Emprimir" style="ellipse;whiteSpace=wrap;html=1;" vertex="1" parent="1">
          <mxGeometry x="670" y="485" width="140" height="70" as="geometry" />
        </mxCell>
        <mxCell id="__-ANQvbYC6DvYHzRRDW-12" style="edgeStyle=orthogonalEdgeStyle;rounded=0;orthogonalLoop=1;jettySize=auto;html=1;exitX=0.5;exitY=0;exitDx=0;exitDy=0;entryX=0.5;entryY=1;entryDx=0;entryDy=0;endArrow=none;endFill=0;" edge="1" parent="1" source="__-ANQvbYC6DvYHzRRDW-11" target="__-ANQvbYC6DvYHzRRDW-5">
          <mxGeometry relative="1" as="geometry" />
        </mxCell>
        <mxCell id="__-ANQvbYC6DvYHzRRDW-11" value="VerificarSituaçãoPedido" style="ellipse;whiteSpace=wrap;html=1;" vertex="1" parent="1">
          <mxGeometry x="265" y="580" width="140" height="70" as="geometry" />
        </mxCell>
        <mxCell id="__-ANQvbYC6DvYHzRRDW-13" value="Equipamento" style="shape=umlActor;verticalLabelPosition=bottom;verticalAlign=top;html=1;outlineConnect=0;" vertex="1" parent="1">
          <mxGeometry x="40" y="1030" width="30" height="60" as="geometry" />
        </mxCell>
        <mxCell id="__-ANQvbYC6DvYHzRRDW-14" value="GerarResultadoExames" style="ellipse;whiteSpace=wrap;html=1;" vertex="1" parent="1">
          <mxGeometry x="250" y="1030" width="140" height="70" as="geometry" />
        </mxCell>
        <mxCell id="__-ANQvbYC6DvYHzRRDW-15" style="rounded=0;orthogonalLoop=1;jettySize=auto;html=1;entryX=0.5;entryY=0.5;entryDx=0;entryDy=0;entryPerimeter=0;endArrow=none;endFill=0;exitX=0;exitY=0.5;exitDx=0;exitDy=0;" edge="1" parent="1" source="__-ANQvbYC6DvYHzRRDW-14" target="__-ANQvbYC6DvYHzRRDW-13">
          <mxGeometry relative="1" as="geometry" />
        </mxCell>
        <mxCell id="__-ANQvbYC6DvYHzRRDW-16" value="Salvar na pasta" style="ellipse;whiteSpace=wrap;html=1;" vertex="1" parent="1">
          <mxGeometry x="452" y="1030" width="140" height="70" as="geometry" />
        </mxCell>
        <mxCell id="__-ANQvbYC6DvYHzRRDW-17" value="&amp;lt;&amp;lt;include&amp;gt;&amp;gt;" style="html=1;verticalAlign=bottom;labelBackgroundColor=none;endArrow=open;endFill=0;dashed=1;rounded=0;" edge="1" parent="1" source="__-ANQvbYC6DvYHzRRDW-14">
          <mxGeometry width="160" relative="1" as="geometry">
            <mxPoint x="390" y="1065" as="sourcePoint" />
            <mxPoint x="450" y="1065" as="targetPoint" />
          </mxGeometry>
        </mxCell>
        <mxCell id="__-ANQvbYC6DvYHzRRDW-19" value="RegistrarDataExame" style="ellipse;whiteSpace=wrap;html=1;" vertex="1" parent="1">
          <mxGeometry x="264" y="840" width="140" height="70" as="geometry" />
        </mxCell>
        <mxCell id="__-ANQvbYC6DvYHzRRDW-21" value="&amp;lt;&amp;lt;extend&amp;gt;&amp;gt;" style="html=1;verticalAlign=bottom;labelBackgroundColor=none;endArrow=open;endFill=0;dashed=1;rounded=0;entryX=0;entryY=0.5;entryDx=0;entryDy=0;" edge="1" parent="1" target="__-ANQvbYC6DvYHzRRDW-22">
          <mxGeometry width="160" relative="1" as="geometry">
            <mxPoint x="403" y="875" as="sourcePoint" />
            <mxPoint x="490" y="875" as="targetPoint" />
          </mxGeometry>
        </mxCell>
        <mxCell id="__-ANQvbYC6DvYHzRRDW-22" value="FazerUpload" style="ellipse;whiteSpace=wrap;html=1;" vertex="1" parent="1">
          <mxGeometry x="490" y="808" width="140" height="70" as="geometry" />
        </mxCell>
        <mxCell id="__-ANQvbYC6DvYHzRRDW-23" value="&amp;lt;&amp;lt;include&amp;gt;&amp;gt;" style="html=1;verticalAlign=bottom;labelBackgroundColor=none;endArrow=open;endFill=0;dashed=1;rounded=0;exitX=1;exitY=0.5;exitDx=0;exitDy=0;entryX=0;entryY=0.5;entryDx=0;entryDy=0;" edge="1" parent="1" source="__-ANQvbYC6DvYHzRRDW-19" target="__-ANQvbYC6DvYHzRRDW-24">
          <mxGeometry width="160" relative="1" as="geometry">
            <mxPoint x="390" y="930" as="sourcePoint" />
            <mxPoint x="490" y="910" as="targetPoint" />
          </mxGeometry>
        </mxCell>
        <mxCell id="__-ANQvbYC6DvYHzRRDW-24" value="EmitirLaudo" style="ellipse;whiteSpace=wrap;html=1;" vertex="1" parent="1">
          <mxGeometry x="490" y="882" width="140" height="70" as="geometry" />
        </mxCell>
        <mxCell id="__-ANQvbYC6DvYHzRRDW-25" value="&amp;lt;&amp;lt;extend&amp;gt;&amp;gt;" style="html=1;verticalAlign=bottom;labelBackgroundColor=none;endArrow=open;endFill=0;dashed=1;rounded=0;exitX=1;exitY=1;exitDx=0;exitDy=0;entryX=0;entryY=0.5;entryDx=0;entryDy=0;" edge="1" parent="1" source="uzObenUR7tk3p3OHf-jT-2" target="__-ANQvbYC6DvYHzRRDW-26">
          <mxGeometry width="160" relative="1" as="geometry">
            <mxPoint x="420" y="260" as="sourcePoint" />
            <mxPoint x="490" y="250" as="targetPoint" />
          </mxGeometry>
        </mxCell>
        <mxCell id="__-ANQvbYC6DvYHzRRDW-26" value="CancelarPedido" style="ellipse;whiteSpace=wrap;html=1;" vertex="1" parent="1">
          <mxGeometry x="500" y="250" width="140" height="70" as="geometry" />
        </mxCell>
        <mxCell id="__-ANQvbYC6DvYHzRRDW-27" value="DefinirStatusLaudo" style="ellipse;whiteSpace=wrap;html=1;" vertex="1" parent="1">
          <mxGeometry x="265" y="760" width="140" height="70" as="geometry" />
        </mxCell>
        <mxCell id="__-ANQvbYC6DvYHzRRDW-28" style="rounded=0;orthogonalLoop=1;jettySize=auto;html=1;entryX=0.5;entryY=0.5;entryDx=0;entryDy=0;entryPerimeter=0;endArrow=none;endFill=0;exitX=0;exitY=0.5;exitDx=0;exitDy=0;" edge="1" parent="1" source="__-ANQvbYC6DvYHzRRDW-27" target="bGlNpmlMCKQ2iGiUxBxq-9">
          <mxGeometry relative="1" as="geometry" />
        </mxCell>
        <mxCell id="__-ANQvbYC6DvYHzRRDW-29" value="ConsultarLaudo" style="ellipse;whiteSpace=wrap;html=1;" vertex="1" parent="1">
          <mxGeometry x="269" y="660" width="140" height="70" as="geometry" />
        </mxCell>
        <mxCell id="__-ANQvbYC6DvYHzRRDW-30" style="rounded=0;orthogonalLoop=1;jettySize=auto;html=1;exitX=0;exitY=0.5;exitDx=0;exitDy=0;entryX=0.5;entryY=0.5;entryDx=0;entryDy=0;entryPerimeter=0;endArrow=none;endFill=0;" edge="1" parent="1" source="__-ANQvbYC6DvYHzRRDW-29" target="bGlNpmlMCKQ2iGiUxBxq-8">
          <mxGeometry relative="1" as="geometry" />
        </mxCell>
        <mxCell id="__-ANQvbYC6DvYHzRRDW-35" value="Extends" style="endArrow=block;endSize=16;endFill=0;html=1;rounded=0;exitX=0.5;exitY=0;exitDx=0;exitDy=0;entryX=0.5;entryY=1;entryDx=0;entryDy=0;" edge="1" parent="1" source="uzObenUR7tk3p3OHf-jT-5" target="uzObenUR7tk3p3OHf-jT-3">
          <mxGeometry width="160" relative="1" as="geometry">
            <mxPoint x="330" y="-310" as="sourcePoint" />
            <mxPoint x="490" y="-310" as="targetPoint" />
          </mxGeometry>
        </mxCell>
        <mxCell id="__-ANQvbYC6DvYHzRRDW-36" value="Extends" style="endArrow=block;endSize=16;endFill=0;html=1;rounded=0;exitX=0.5;exitY=0;exitDx=0;exitDy=0;entryX=0.5;entryY=1;entryDx=0;entryDy=0;" edge="1" parent="1" source="uzObenUR7tk3p3OHf-jT-4" target="uzObenUR7tk3p3OHf-jT-3">
          <mxGeometry width="160" relative="1" as="geometry">
            <mxPoint x="115" y="-220" as="sourcePoint" />
            <mxPoint x="245" y="-278" as="targetPoint" />
          </mxGeometry>
        </mxCell>
        <mxCell id="__-ANQvbYC6DvYHzRRDW-39" style="edgeStyle=orthogonalEdgeStyle;rounded=0;orthogonalLoop=1;jettySize=auto;html=1;entryX=0.5;entryY=1;entryDx=0;entryDy=0;endArrow=none;endFill=0;" edge="1" parent="1" source="__-ANQvbYC6DvYHzRRDW-38" target="bGlNpmlMCKQ2iGiUxBxq-2">
          <mxGeometry relative="1" as="geometry" />
        </mxCell>
        <mxCell id="__-ANQvbYC6DvYHzRRDW-40" style="edgeStyle=orthogonalEdgeStyle;rounded=0;orthogonalLoop=1;jettySize=auto;html=1;entryX=0.75;entryY=1;entryDx=0;entryDy=0;endArrow=none;endFill=0;" edge="1" parent="1" source="__-ANQvbYC6DvYHzRRDW-38" target="__-ANQvbYC6DvYHzRRDW-2">
          <mxGeometry relative="1" as="geometry" />
        </mxCell>
        <mxCell id="__-ANQvbYC6DvYHzRRDW-38" value="&lt;p style=&quot;margin:0px;margin-top:4px;text-align:center;&quot;&gt;&lt;b&gt;Resultado Exame&lt;/b&gt;&lt;/p&gt;&lt;hr size=&quot;1&quot; style=&quot;border-style:solid;&quot;&gt;&lt;p style=&quot;margin:0px;margin-left:4px;&quot;&gt;- Laudo:&lt;br&gt;&lt;/p&gt;&lt;p style=&quot;margin:0px;margin-left:4px;&quot;&gt;- Exame:&lt;/p&gt;&lt;hr size=&quot;1&quot; style=&quot;border-style:solid;&quot;&gt;&lt;p style=&quot;margin:0px;margin-left:4px;&quot;&gt;+&amp;nbsp;&lt;/p&gt;" style="verticalAlign=top;align=left;overflow=fill;html=1;whiteSpace=wrap;" vertex="1" parent="1">
          <mxGeometry x="630" y="-160" width="190" height="60" as="geometry" />
        </mxCell>
      </root>
    </mxGraphModel>
  </diagram>
</mxfile>
